<?xml version="1.0" encoding="UTF-8" standalone="no"?>
<!-- Created with Inkscape (http://www.inkscape.org/) -->

<svg
   xmlns:dc="http://purl.org/dc/elements/1.1/"
   xmlns:cc="http://creativecommons.org/ns#"
   xmlns:rdf="http://www.w3.org/1999/02/22-rdf-syntax-ns#"
   xmlns:svg="http://www.w3.org/2000/svg"
   xmlns="http://www.w3.org/2000/svg"
   xmlns:sodipodi="http://sodipodi.sourceforge.net/DTD/sodipodi-0.dtd"
   xmlns:inkscape="http://www.inkscape.org/namespaces/inkscape"
   width="256"
   height="256"
   id="svg2"
   version="1.1"
   inkscape:version="0.48.5 r10040"
   inkscape:export-filename="miaoli.png"
   inkscape:export-xdpi="90"
   inkscape:export-ydpi="90"
   sodipodi:docname="New document 1">
  <defs
     id="defs4" />
  <sodipodi:namedview
     id="base"
     pagecolor="#ffffff"
     bordercolor="#666666"
     borderopacity="1.0"
     inkscape:pageopacity="0"
     inkscape:pageshadow="2"
     inkscape:zoom="0.95915168"
     inkscape:cx="240.53828"
     inkscape:cy="4.1760139"
     inkscape:document-units="px"
     inkscape:current-layer="layer1"
     showgrid="false"
     inkscape:window-width="1916"
     inkscape:window-height="1057"
     inkscape:window-x="0"
     inkscape:window-y="19"
     inkscape:window-maximized="0" />
  <metadata
     id="metadata7">
    <rdf:RDF>
      <cc:Work
         rdf:about="">
        <dc:format>image/svg+xml</dc:format>
        <dc:type
           rdf:resource="http://purl.org/dc/dcmitype/StillImage" />
        <dc:title></dc:title>
      </cc:Work>
    </rdf:RDF>
  </metadata>
  <g
     inkscape:label="Layer 1"
     inkscape:groupmode="layer"
     id="layer1"
     transform="translate(0,-796.36218)">
    <path
       style="fill:#00b7ff;fill-opacity:1;stroke:none"
       d="m 35.385155,809.67981 c -4.468631,0 -1.812534,8.49487 -4.728437,11.41077 -2.915903,2.91591 -11.410775,0.22072 -11.410775,4.68936 l 0,116.02256 c 0,4.46864 9.393664,1.3436 12.309568,4.25951 1.457951,1.45795 1.295389,4.43345 1.328652,7.03404 0.03326,2.60059 0.266676,4.84567 2.500992,4.84567 29.45178,0 48.899596,0 78.351375,0 7.89005,6.99682 25.16994,17.1143 23.68127,20.98488 -3.27511,3.27511 -9.2131,5.19367 -9.80857,9.80857 4.01945,5.95475 59.54926,31.56013 83.66598,40.64113 -14.35603,-12.8221 -55.20511,-39.65868 -54.90459,-42.86856 3.57285,-4.76379 8.92653,-5.48582 8.47993,-8.90979 1.93529,-2.53077 -16.10013,-19.65623 -16.10013,-19.65623 23.9548,0 47.90962,0 71.86443,0 5.13854,0 1.12029,-9.3825 3.86872,-12.0751 2.74843,-2.69261 12.27049,1.29774 12.27049,-4.06412 l 0,-116.02256 c 0,-4.46864 -8.49488,-0.4448 -11.41077,-3.3607 -2.91591,-2.91591 -0.2598,-12.73943 -4.72844,-12.73943 z"
       id="rect3755"
       inkscape:connector-curvature="0"
       sodipodi:nodetypes="sssssscccccccccssssss" />
    <text
       xml:space="preserve"
       style="font-size:154.85194397px;font-style:normal;font-variant:normal;font-weight:normal;font-stretch:normal;line-height:125%;letter-spacing:0px;word-spacing:0px;fill:#ffffff;fill-opacity:1;stroke:none;font-family:Consolas;-inkscape-font-specification:Consolas"
       x="57.568073"
       y="933.33679"
       id="text3762"
       sodipodi:linespacing="125%"><tspan
         sodipodi:role="line"
         id="tspan3764"
         x="57.568073"
         y="933.33679">#!</tspan></text>
  </g>
</svg>
